<?xml version="1.0" standalone="no"?>
<!DOCTYPE svg PUBLIC "-//W3C//DTD SVG 1.1//EN" "http://www.w3.org/Graphics/SVG/1.1/DTD/svg11.dtd">
<svg xmlns="http://www.w3.org/2000/svg" xmlns:xlink="http://www.w3.org/1999/xlink" width="43" height="48" style="fill-rule:evenodd;clip-rule:evenodd;stroke-linejoin:round;stroke-miterlimit:1.41421" version="1.1" viewBox="0 0 43 48" xml:space="preserve">
    <path id="path0_fill" d="M35.214,22.461c-0.479,-0.325 -1.131,-0.191 -1.457,0.287c-1.897,2.851 -5.922,3.004 -6.132,3.004c-0.039,0 -0.058,0 -0.096,0c-4.964,0 -6.861,4.228 -6.938,4.401c-0.23,0.535 0.019,1.148 0.537,1.377c0.134,0.058 0.287,0.096 0.422,0.096c0.402,0 0.785,-0.23 0.958,-0.631c0.019,-0.039 1.322,-2.947 4.676,-3.138l0,5.414c-0.134,1.168 -0.69,2.086 -1.667,2.775c-1.016,0.708 -2.377,1.071 -4.044,1.071c-1.993,0 -3.622,-0.689 -4.83,-2.047c-1.226,-1.359 -1.839,-3.291 -1.839,-5.778l0.019,-5.97c0.096,-2.2 0.69,-3.941 1.82,-5.185c1.227,-1.359 2.837,-2.047 4.83,-2.047c1.667,0 3.028,0.363 4.044,1.071c1.015,0.708 1.59,1.684 1.686,2.947c0,0.038 0,0.095 0,0.134c0,0.727 0.594,1.32 1.322,1.32c0.729,0 1.323,-0.593 1.323,-1.32c0,-0.039 0,-0.096 0,-0.134c-0.192,-1.895 -1.054,-3.387 -2.607,-4.516c-1.552,-1.129 -3.488,-1.684 -5.826,-1.684c-2.778,0 -5.021,0.919 -6.726,2.736c-1.61,1.703 -2.453,3.942 -2.549,6.697c0,0.191 -0.019,0.383 -0.019,0.574l0.019,5.377l-0.019,0c0,3.042 0.862,5.472 2.568,7.29c1.705,1.817 3.948,2.736 6.726,2.736c2.338,0 4.274,-0.555 5.826,-1.684c1.419,-1.033 2.262,-2.392 2.549,-4.076l0.058,-6.007c1.744,-0.421 4.12,-1.378 5.615,-3.636c0.383,-0.478 0.249,-1.129 -0.249,-1.454Z" style="fill:#c29c69;fill-rule:nonzero"/>
    <path d="M31.153,10.08c-2.25,-1.43 -4.454,-1.99 -6.623,-3.415c-1.338,-0.865 -3.201,-3.068 -4.759,-4.932c-0.3,2.988 -1.165,4.24 -2.249,5.065c-2.204,1.731 -3.588,2.25 -5.492,3.288c-1.598,0.86 -10.297,6.005 -10.297,17.167c0,3.565 0.958,6.83 2.602,9.622c3.501,5.953 10.118,9.76 17.213,9.76c10.429,0 19.469,-7.568 19.469,-19.036c0,-6.293 -2.556,-10.7 -5.094,-13.533c-2.082,-2.33 -4.147,-3.599 -4.77,-3.986ZM36.413,15.139c2.838,3.554 4.281,7.742 4.281,12.46c0,2.734 -0.52,5.319 -1.546,7.684c-0.975,2.238 -2.377,4.222 -4.171,5.901c-3.548,3.311 -8.312,5.134 -13.423,5.134c-2.527,0 -5.007,-0.485 -7.372,-1.437c-2.325,-0.934 -4.413,-2.272 -6.219,-3.98c-3.813,-3.599 -5.907,-8.445 -5.907,-13.648c0,-4.632 1.506,-8.751 4.471,-12.241c2.267,-2.665 4.713,-4.141 5.653,-4.649c0.462,-0.248 0.888,-0.473 1.304,-0.686c1.303,-0.67 2.538,-1.304 4.234,-2.631c0.905,-0.686 1.869,-1.777 2.278,-4.54c1.431,1.702 3.086,3.611 4.356,4.431c1.124,0.744 2.278,1.263 3.391,1.765c1.056,0.473 2.146,0.969 3.225,1.655l0.04,0.023c3.167,1.967 4.852,4.073 5.405,4.759Z" style="fill:#000;fill-rule:nonzero;stroke-width:2px;stroke:#c29c69"/>
</svg>
