<?xml version="1.0" standalone="no"?>
<!DOCTYPE svg PUBLIC "-//W3C//DTD SVG 20010904//EN"
 "http://www.w3.org/TR/2001/REC-SVG-20010904/DTD/svg10.dtd">
<svg version="1.0" xmlns="http://www.w3.org/2000/svg"
 width="860.000000pt" height="489.000000pt" viewBox="0 0 860.000000 489.000000"
 preserveAspectRatio="xMidYMid meet">

<g transform="translate(0.000000,489.000000) scale(0.100000,-0.100000)"
fill="#0072c6" stroke="none">
<path d="M0 2445 l0 -2445 2145 0 2144 0 16 30 c9 17 15 55 15 91 0 47 7 75
30 124 28 58 34 65 77 79 26 9 57 16 69 16 13 0 26 5 29 11 4 5 12 8 18 6 22
-8 66 23 95 66 22 32 31 59 36 111 8 81 22 112 70 154 34 30 48 34 147 47 34
4 54 14 76 38 45 47 53 68 60 159 6 78 8 84 46 125 40 43 81 61 179 78 39 6
91 43 109 77 6 10 14 57 19 104 13 125 58 183 153 198 20 3 53 8 72 11 41 7
89 45 112 89 9 17 22 70 29 119 9 68 18 95 39 123 32 42 78 64 132 64 52 1
115 31 142 68 14 21 27 63 37 124 19 121 47 164 126 195 31 13 80 26 109 30
43 7 57 14 81 45 25 30 32 50 39 118 9 83 27 133 53 147 8 4 14 12 13 17 -3
17 56 45 134 64 41 11 84 25 97 33 30 19 52 70 59 135 3 30 10 54 14 54 5 0 9
13 9 28 0 69 94 146 232 191 80 27 118 58 118 100 0 56 22 136 48 174 28 42
103 82 224 118 62 19 68 24 89 65 18 39 20 55 15 132 -6 75 -4 90 11 109 25
31 110 73 147 73 48 0 127 34 142 61 7 13 13 51 14 85 0 34 5 75 11 92 13 36
88 98 132 108 18 3 41 13 52 20 11 8 26 14 35 14 16 0 70 45 70 58 0 4 10 18
23 32 30 34 47 86 47 149 0 41 5 56 23 74 67 63 89 74 181 83 85 9 106 29 113
113 l6 61 -4282 0 -4281 0 0 -2445z"/>
</g>
</svg>
