<?xml version="1.0" standalone="no"?>
<!DOCTYPE svg PUBLIC "-//W3C//DTD SVG 20010904//EN"
 "http://www.w3.org/TR/2001/REC-SVG-20010904/DTD/svg10.dtd">
<svg version="1.0" xmlns="http://www.w3.org/2000/svg"
 width="369.000000pt" height="414.000000pt" viewBox="0 0 369.000000 414.000000"
 preserveAspectRatio="xMidYMid meet">

<g transform="translate(0.000000,414.000000) scale(0.100000,-0.100000)"
fill="#0072c6" stroke="none">
<path d="M0 2273 l0 -1868 43 -20 c23 -11 60 -37 82 -58 21 -20 45 -37 52 -37
7 0 22 -5 33 -12 31 -20 104 6 195 68 103 69 125 69 200 2 58 -51 120 -78 179
-78 49 0 65 6 127 44 48 30 90 48 135 56 64 12 65 12 107 -16 59 -41 94 -52
157 -53 57 -1 124 23 148 51 7 9 46 24 87 33 l74 18 47 -39 c25 -21 54 -43 65
-49 10 -5 19 -15 19 -22 0 -15 61 -27 92 -18 12 4 48 23 79 41 78 47 131 64
199 64 46 0 61 -4 76 -22 25 -28 136 -78 174 -78 18 0 50 13 75 30 24 17 48
30 53 30 6 0 12 5 14 11 2 6 28 19 58 30 61 21 97 16 165 -26 87 -53 156 -85
183 -85 18 0 54 18 99 50 106 75 179 88 230 41 37 -35 126 -72 183 -78 53 -5
57 -3 95 32 48 44 105 75 140 75 l25 0 0 1875 0 1875 -1845 0 -1845 0 0 -1867z"/>
</g>
</svg>
