<?xml version="1.0" standalone="no"?>
<!DOCTYPE svg PUBLIC "-//W3C//DTD SVG 20010904//EN"
 "http://www.w3.org/TR/2001/REC-SVG-20010904/DTD/svg10.dtd">
<svg version="1.0" xmlns="http://www.w3.org/2000/svg"
 width="373.000000pt" height="434.000000pt" viewBox="0 0 373.000000 434.000000"
 preserveAspectRatio="xMidYMid meet">

<g transform="translate(0.000000,434.000000) scale(0.100000,-0.100000)"
fill="#0072C6" stroke="none">
<path d="M0 2345 l0 -1995 23 0 c22 0 84 -32 102 -53 6 -7 28 -24 51 -40 67
-45 136 -31 219 43 45 41 68 50 130 50 64 0 97 -14 140 -60 78 -82 161 -79
260 10 45 41 68 50 130 50 67 0 83 -8 153 -72 47 -42 59 -48 97 -48 47 0 99
25 150 70 45 41 68 50 130 50 64 0 97 -14 140 -60 78 -82 161 -79 260 10 45
41 68 50 130 50 58 0 101 -16 126 -46 8 -10 32 -30 53 -46 65 -47 138 -33 221
42 45 41 68 50 132 50 62 0 76 -7 168 -80 80 -64 109 -58 264 55 27 20 46 25
93 25 63 0 101 -14 133 -50 34 -38 93 -70 129 -70 36 0 93 27 136 66 38 33 85
54 125 54 l35 0 0 1995 0 1995 -1865 0 -1865 0 0 -1995z"/>
</g>
</svg>
